<?xml version="1.0" encoding="UTF-8" standalone="no"?>
<!DOCTYPE svg PUBLIC "-//W3C//DTD SVG 1.1//EN" "http://www.w3.org/Graphics/SVG/1.1/DTD/svg11.dtd">
<svg width="100%" height="100%" viewBox="0 0 1847 533" version="1.1" xmlns="http://www.w3.org/2000/svg" xmlns:xlink="http://www.w3.org/1999/xlink" xml:space="preserve" xmlns:serif="http://www.serif.com/" style="fill-rule:evenodd;clip-rule:evenodd;stroke-linejoin:round;stroke-miterlimit:2;">
    <g transform="matrix(1,0,0,1,-895.022235,-689.056901)">
        <g transform="matrix(1.721685,0,0,1.703902,-1904.672011,-1160.500355)">
            <path d="M1724.913,1100.409C1717.715,1093.135 1706.517,1088.69 1690.121,1088.69L1626.136,1088.69L1626.136,1383.669L1640.133,1397.812L1706.117,1397.812C1743.309,1397.812 1754.106,1376.395 1754.106,1341.24L1754.106,1300.832C1754.106,1283.457 1748.507,1272.143 1736.51,1266.486C1746.108,1260.828 1752.106,1250.322 1752.106,1236.18L1752.106,1159.404C1752.106,1141.221 1749.307,1125.058 1738.91,1114.956L1724.913,1100.409ZM1702.518,1254.767C1726.512,1254.767 1734.111,1266.89 1734.111,1286.69L1734.111,1327.098C1734.111,1354.979 1727.712,1377.608 1692.121,1377.608L1632.135,1377.608L1632.135,1094.752L1690.121,1094.752C1725.713,1094.752 1732.111,1117.38 1732.111,1145.262L1732.111,1222.037C1732.111,1239.008 1722.113,1250.726 1702.518,1250.726L1702.518,1254.767ZM1672.125,1236.18L1682.123,1236.18C1687.722,1236.18 1692.121,1231.735 1692.121,1226.078L1692.121,1141.221C1692.121,1135.564 1687.722,1131.119 1682.123,1131.119L1672.125,1131.119L1672.125,1236.18ZM1672.125,1341.24L1684.122,1341.24C1689.721,1341.24 1694.12,1336.796 1694.12,1331.138L1694.12,1282.649C1694.12,1276.992 1689.721,1272.547 1684.122,1272.547L1672.125,1272.547L1672.125,1341.24Z" style="fill-rule:nonzero;"/>
            <path d="M1824.09,1179.608C1818.948,1174.413 1810.95,1171.238 1799.238,1171.238L1753.535,1171.238L1753.535,1381.937L1763.532,1392.039L1800.667,1392.039L1800.667,1382.803L1810.093,1392.039L1847.513,1392.039L1846.37,1387.132C1844.371,1376.742 1842.657,1366.64 1840.657,1356.538C1838.943,1348.167 1834.087,1340.663 1826.946,1336.334C1839.229,1332.87 1843.514,1323.634 1843.514,1311.223L1843.514,1221.748C1843.514,1208.76 1841.514,1197.215 1834.087,1189.999L1824.09,1179.608ZM1757.819,1377.608L1757.819,1175.568L1799.238,1175.568C1824.661,1175.568 1829.231,1191.731 1829.231,1211.646L1829.231,1301.121C1829.231,1317.284 1821.519,1323.345 1802.38,1323.345L1802.38,1326.232C1814.663,1326.232 1824.09,1335.468 1826.375,1347.302L1832.088,1377.608L1803.523,1377.608L1797.81,1344.415C1797.239,1340.375 1794.668,1337.2 1790.669,1337.2L1786.384,1337.2L1786.384,1377.608L1757.819,1377.608ZM1786.384,1311.223L1793.525,1311.223C1797.524,1311.223 1800.667,1308.048 1800.667,1304.007L1800.667,1208.76C1800.667,1204.719 1797.524,1201.544 1793.525,1201.544L1786.384,1201.544L1786.384,1311.223Z" style="fill-rule:nonzero;"/>
            <path d="M1889.503,1381.937L1899.501,1392.039L1936.92,1392.039L1918.925,1181.34L1908.927,1171.238L1858.082,1171.238L1840.372,1381.937L1850.369,1392.039L1887.789,1392.039L1888.646,1374.721L1889.217,1374.721L1889.503,1381.937ZM1862.081,1175.568L1904.928,1175.568L1922.067,1377.608L1893.502,1377.608L1892.645,1360.29L1874.364,1360.29L1873.507,1377.608L1844.942,1377.608L1862.081,1175.568ZM1875.506,1334.313L1891.502,1334.313L1884.933,1201.544L1882.076,1201.544L1875.506,1334.313Z" style="fill-rule:nonzero;"/>
            <path d="M1974.911,1175.856C1970.912,1171.238 1964.628,1168.352 1956.344,1168.352C1941.491,1168.352 1932.064,1177.877 1932.064,1192.885L1932.064,1266.486C1932.064,1287.555 1944.918,1300.255 1956.344,1310.934L1956.344,1311.223L1932.064,1311.223L1932.064,1342.972C1932.064,1355.96 1936.063,1366.351 1943.205,1373.567L1953.202,1383.957C1960.343,1391.173 1970.627,1394.925 1983.481,1394.925C2008.047,1394.925 2025.185,1380.783 2025.185,1355.383C2025.185,1334.602 2012.617,1319.016 2001.191,1306.605L1995.192,1300.255L2022.043,1300.255L2022.043,1181.34L2012.046,1171.238L1974.911,1171.238L1974.911,1175.856ZM2007.761,1175.568L2007.761,1285.824L1979.196,1285.824L1979.196,1205.296C1979.196,1201.256 1976.054,1198.081 1972.055,1198.081C1968.056,1198.081 1964.914,1201.256 1964.914,1205.296L1964.914,1266.486C1964.914,1287.555 2010.903,1307.182 2010.903,1345.281C2010.903,1363.753 2000.048,1380.494 1973.483,1380.494C1947.204,1380.494 1936.349,1363.753 1936.349,1342.972L1936.349,1315.552L1964.914,1315.552L1964.914,1345.858C1964.914,1350.765 1968.627,1354.517 1973.483,1354.517C1978.339,1354.517 1982.053,1350.765 1982.053,1345.858C1982.053,1312.089 1936.349,1304.873 1936.349,1266.486L1936.349,1192.885C1936.349,1181.629 1942.348,1172.681 1956.344,1172.681C1970.341,1172.681 1976.34,1181.629 1976.34,1193.463L1979.196,1193.463L1979.196,1175.568L2007.761,1175.568Z" style="fill-rule:nonzero;"/>
            <path d="M2065.176,1175.856C2061.177,1171.238 2054.893,1168.352 2046.609,1168.352C2031.755,1168.352 2022.329,1177.877 2022.329,1192.885L2022.329,1266.486C2022.329,1287.555 2035.183,1300.255 2046.609,1310.934L2046.609,1311.223L2022.329,1311.223L2022.329,1342.972C2022.329,1355.96 2026.328,1366.351 2033.469,1373.567L2043.467,1383.957C2050.608,1391.173 2060.891,1394.925 2073.745,1394.925C2098.311,1394.925 2115.45,1380.783 2115.45,1355.383C2115.45,1334.602 2102.882,1319.016 2091.456,1306.605L2085.457,1300.255L2112.308,1300.255L2112.308,1181.34L2102.31,1171.238L2065.176,1171.238L2065.176,1175.856ZM2098.026,1175.568L2098.026,1285.824L2069.461,1285.824L2069.461,1205.296C2069.461,1201.256 2066.319,1198.081 2062.32,1198.081C2058.321,1198.081 2055.178,1201.256 2055.178,1205.296L2055.178,1266.486C2055.178,1287.555 2101.168,1307.182 2101.168,1345.281C2101.168,1363.753 2090.313,1380.494 2063.748,1380.494C2037.468,1380.494 2026.614,1363.753 2026.614,1342.972L2026.614,1315.552L2055.178,1315.552L2055.178,1345.858C2055.178,1350.765 2058.892,1354.517 2063.748,1354.517C2068.604,1354.517 2072.317,1350.765 2072.317,1345.858C2072.317,1312.089 2026.614,1304.873 2026.614,1266.486L2026.614,1192.885C2026.614,1181.629 2032.612,1172.681 2046.609,1172.681C2060.606,1172.681 2066.604,1181.629 2066.604,1193.463L2069.461,1193.463L2069.461,1175.568L2098.026,1175.568Z" style="fill-rule:nonzero;"/>
            <path d="M2256.861,1100.6C2247.157,1090.795 2233.005,1085.483 2215.213,1085.483L2158.605,1085.483L2158.605,1383.736L2172.757,1398.036L2225.322,1398.036L2225.322,1351.051C2230.578,1357.588 2238.665,1361.265 2249.583,1361.265C2269.396,1361.265 2285.974,1347.374 2285.974,1326.537L2285.974,1156.982C2285.974,1139.414 2280.717,1125.114 2271.013,1114.9L2256.861,1100.6ZM2265.757,1312.237C2265.757,1328.171 2253.222,1340.837 2235.835,1340.837C2221.683,1340.837 2209.148,1332.257 2209.148,1312.237L2209.148,1310.194L2205.105,1310.194L2205.105,1377.608L2164.67,1377.608L2164.67,1091.612L2215.213,1091.612C2251.2,1091.612 2265.757,1114.491 2265.757,1142.682L2265.757,1312.237ZM2205.105,1128.383L2205.105,1293.852C2205.105,1299.572 2209.553,1304.066 2215.213,1304.066C2220.874,1304.066 2225.322,1299.572 2225.322,1293.852L2225.322,1138.597C2225.322,1132.877 2220.874,1128.383 2215.213,1128.383L2205.105,1128.383Z" style="fill-rule:nonzero;"/>
            <path d="M2334.534,1347.302L2334.534,1181.34L2324.536,1171.238L2287.402,1171.238L2287.402,1381.937L2297.4,1392.039L2357.386,1392.039L2357.386,1357.404L2347.388,1347.302L2334.534,1347.302ZM2291.687,1175.568L2320.252,1175.568L2320.252,1351.631L2343.103,1351.631L2343.103,1377.608L2291.687,1377.608L2291.687,1175.568Z" style="fill-rule:nonzero;"/>
            <path d="M2399.09,1381.937L2409.088,1392.039L2446.508,1392.039L2428.512,1181.34L2418.514,1171.238L2367.669,1171.238L2349.959,1381.937L2359.956,1392.039L2397.376,1392.039L2398.233,1374.721L2398.805,1374.721L2399.09,1381.937ZM2371.668,1175.568L2414.515,1175.568L2431.654,1377.608L2403.089,1377.608L2402.232,1360.29L2383.951,1360.29L2383.094,1377.608L2354.529,1377.608L2371.668,1175.568ZM2385.093,1334.313L2401.09,1334.313L2394.52,1201.544L2391.663,1201.544L2385.093,1334.313Z" style="fill-rule:nonzero;"/>
            <path d="M2481.886,1171.238L2481.886,1177.011L2476.173,1171.238L2439.039,1171.238L2439.039,1288.133C2439.039,1308.625 2447.037,1334.025 2460.463,1350.188L2460.463,1381.937L2470.46,1392.039L2507.594,1392.039L2507.594,1360.579C2521.02,1344.127 2529.018,1318.727 2529.018,1298.235L2529.018,1181.34L2519.02,1171.238L2481.886,1171.238ZM2464.747,1348.745C2464.747,1348.745 2443.324,1323.923 2443.324,1288.133L2443.324,1175.568L2471.889,1175.568L2471.889,1288.133C2471.889,1301.41 2475.316,1314.975 2479.03,1325.654C2482.743,1314.975 2486.171,1301.41 2486.171,1288.133L2486.171,1175.568L2514.736,1175.568L2514.736,1288.133C2514.736,1323.923 2493.312,1348.745 2493.312,1348.745L2493.312,1377.608L2464.747,1377.608L2464.747,1348.745Z" style="fill-rule:nonzero;"/>
            <path d="M2577.578,1347.302L2577.578,1259.27L2603.286,1259.27L2603.286,1224.634L2594.717,1215.976L2606.143,1215.976L2606.143,1181.34L2596.145,1171.238L2530.446,1171.238L2530.446,1381.937L2540.444,1392.039L2606.143,1392.039L2606.143,1357.404L2596.145,1347.302L2577.578,1347.302ZM2534.731,1175.568L2591.86,1175.568L2591.86,1201.544L2563.296,1201.544L2563.296,1218.862L2589.004,1218.862L2589.004,1244.838L2563.296,1244.838L2563.296,1351.631L2591.86,1351.631L2591.86,1377.608L2534.731,1377.608L2534.731,1175.568Z" style="fill-rule:nonzero;"/>
            <path d="M2675.27,1179.608C2670.128,1174.413 2662.13,1171.238 2650.418,1171.238L2604.715,1171.238L2604.715,1381.937L2614.712,1392.039L2651.846,1392.039L2651.846,1382.803L2661.273,1392.039L2698.693,1392.039L2697.55,1387.132C2695.551,1376.742 2693.837,1366.64 2691.837,1356.538C2690.123,1348.167 2685.267,1340.663 2678.126,1336.334C2690.409,1332.87 2694.694,1323.634 2694.694,1311.223L2694.694,1221.748C2694.694,1208.76 2692.694,1197.215 2685.267,1189.999L2675.27,1179.608ZM2608.999,1377.608L2608.999,1175.568L2650.418,1175.568C2675.841,1175.568 2680.411,1191.731 2680.411,1211.646L2680.411,1301.121C2680.411,1317.284 2672.699,1323.345 2653.56,1323.345L2653.56,1326.232C2665.843,1326.232 2675.27,1335.468 2677.555,1347.302L2683.268,1377.608L2654.703,1377.608L2648.99,1344.415C2648.419,1340.375 2645.848,1337.2 2641.849,1337.2L2637.564,1337.2L2637.564,1377.608L2608.999,1377.608ZM2637.564,1311.223L2644.705,1311.223C2648.704,1311.223 2651.846,1308.048 2651.846,1304.007L2651.846,1208.76C2651.846,1204.719 2648.704,1201.544 2644.705,1201.544L2637.564,1201.544L2637.564,1311.223Z" style="fill-rule:nonzero;"/>
        </g>
    </g>
</svg>
